<svg xmlns="http://www.w3.org/2000/svg" width="761" height="510" viewBox="0 0 761 510" fill="none">
  <path fill-rule="evenodd" clip-rule="evenodd" d="M87.2977 330.965L132.481 270.356L222.721 240.095L222.842 240.053L268.023 179.446L358.263 149.183L358.385 149.141L403.563 88.5335L493.802 58.2688L493.924 58.23L537.33 0H536.422L493.317 57.8223L403.077 88.0871L402.955 88.1276L357.777 148.735L267.537 178.998L267.416 179.038L222.235 239.647L131.995 269.908L131.874 269.951L86.6932 330.559L0.48999 359.469V360.079L87.1789 331.006L87.2977 330.965ZM53.4142 35.5024L143.654 5.23765L143.776 5.19706L147.649 0H146.74L143.171 4.79118L52.9311 35.0541L52.8096 35.0947L7.62892 95.7035L0.48999 98.0965V98.7088L8.23616 96.1094L53.4142 35.5024ZM19.528 103.685L64.7114 43.0765L154.949 12.8153L155.07 12.7747L164.593 0H163.682L154.465 12.3671L64.2256 42.63L64.1041 42.6706L18.9234 103.279L0.48999 109.463V110.072L19.4092 103.726L19.528 103.685ZM121.062 171.911L121.184 171.87L166.367 111.261L256.605 80.9982L256.726 80.9576L301.907 20.3506L362.585 0H360.766L301.424 19.9024L301.302 19.9429L256.119 80.5518L165.881 110.815L165.76 110.855L120.579 171.462L30.3394 201.727L30.2179 201.768L0.48999 241.648V242.868L30.8252 202.174L121.062 171.911ZM109.768 164.333L109.889 164.294L155.07 103.685L245.31 73.4223L245.429 73.3818L290.612 12.7747L328.699 0H326.88L290.129 12.3265L290.008 12.3671L244.824 72.9759L154.584 103.239L154.465 103.279L109.285 163.886L19.0449 194.149L18.9234 194.19L0.48999 218.921V220.142L19.528 194.598L109.768 164.333ZM132.36 179.486L132.481 179.446L177.659 118.839L267.902 88.5759L268.023 88.5335L313.204 27.9265L396.468 0H394.649L312.718 27.4782L312.597 27.5206L267.416 88.1276L177.176 118.391L177.055 118.431L131.874 179.038L41.6365 209.301L41.5151 209.342L0.48999 264.376V265.597L42.1197 209.749L132.36 179.486ZM30.8252 111.261L76.0059 50.6524L166.246 20.3912L166.365 20.3506L181.535 0H180.627L165.76 19.9429L75.5201 50.2059L75.4013 50.2482L30.2179 110.855L0.48999 120.826V121.435L30.7037 111.302L30.8252 111.261ZM98.4734 156.757L98.5949 156.716L143.776 96.1094L234.016 65.8465L234.137 65.8059L279.318 5.19706L294.813 0H292.996L278.832 4.75059L278.71 4.79118L233.532 65.3982L143.29 95.6629L143.171 95.7035L97.9877 156.311L7.75037 186.574L7.62892 186.616L0.48999 196.193V197.412L8.23616 187.022L98.4734 156.757ZM91.5008 0H89.6818L30.3394 19.9024L30.2179 19.9429L0.48999 59.8235V61.0447L30.8252 20.3506L91.5008 0ZM125.387 0H123.568L41.6365 27.4782L41.5151 27.5206L0.48999 82.5529V83.7724L42.1197 27.9265L125.387 0V0ZM57.6173 0H55.7982L19.0449 12.3265L18.9234 12.3671L0.48999 37.0976V38.3171L19.528 12.7747L57.6173 0V0ZM87.2977 149.141L132.481 88.5335L222.721 58.2688L222.842 58.23L266.249 0H265.341L222.235 57.8223L131.995 88.0871L131.874 88.1276L86.6932 148.735L0.48999 177.644V178.255L87.1789 149.183L87.2977 149.141ZM53.4142 126.415L98.5949 65.8059L188.835 35.5429L188.956 35.5024L215.421 0H214.51L188.349 35.0947L98.1091 65.3576L97.9877 65.3982L52.8096 126.007L0.48999 143.554V144.164L53.2954 126.455L53.4142 126.415ZM76.0059 141.566L121.184 80.9576L211.426 50.6929L211.545 50.6524L249.305 0H248.394L210.941 50.2482L120.701 80.5112L120.579 80.5518L75.4013 141.159L0.48999 166.281V166.892L75.8844 141.607L76.0059 141.566ZM64.7114 133.991L109.889 73.3818L200.129 43.1188L200.251 43.0765L232.363 0H231.452L199.646 42.6706L109.404 72.9335L109.285 72.9759L64.1041 133.585L0.48999 154.918V155.529L64.5899 134.031L64.7114 133.991ZM42.1197 118.839L87.2977 58.23L177.54 27.9671L177.659 27.9265L198.477 0H197.568L177.055 27.5206L86.8146 57.7818L86.6932 57.8223L41.5151 118.431L0.48999 132.189V132.799L41.9982 118.879L42.1197 118.839ZM19.528 285.51L64.7114 224.901L154.949 194.638L155.07 194.598L200.251 133.991L290.491 103.726L290.612 103.685L335.793 43.0765L426.033 12.8153L426.154 12.7747L435.675 0H434.766L425.547 12.3671L335.307 42.63L335.186 42.6706L290.008 103.279L199.768 133.542L199.646 133.585L154.465 194.19L64.2256 224.453L64.1041 224.495L18.9234 285.102L0.48999 291.284V291.895L19.4092 285.551L19.528 285.51ZM42.1197 482.485L87.2977 421.878L177.54 391.615L177.659 391.572L222.842 330.965L313.082 300.702L313.204 300.662L358.385 240.053L448.622 209.788L448.743 209.749L493.924 149.141L584.164 118.879L584.285 118.839L629.463 58.23L719.703 27.9671L719.825 27.9265L740.642 0H739.731L719.217 27.5206L628.98 57.7818L628.859 57.8223L583.678 118.431L493.438 148.694L493.317 148.735L448.139 209.342L357.899 239.606L357.777 239.647L312.597 300.254L222.357 330.517L222.235 330.559L177.055 391.166L86.8146 421.429L86.6932 421.47L41.5151 482.079L0.48999 495.836V496.445L41.9982 482.525L42.1197 482.485ZM76.0059 323.389L121.184 262.781L211.426 232.518L211.545 232.477L256.726 171.87L346.966 141.607L347.087 141.566L392.268 80.9576L482.508 50.6929L482.629 50.6524L520.389 0H519.478L482.022 50.2482L391.782 80.5112L391.663 80.5518L346.48 141.159L256.24 171.422L256.119 171.462L210.941 232.071L120.701 262.332L120.579 262.373L75.4013 322.982L0.48999 348.106V348.715L75.8844 323.43L76.0059 323.389ZM132.36 361.308L132.481 361.267L177.659 300.662L267.902 270.397L268.023 270.356L313.204 209.749L403.441 179.486L403.563 179.446L448.743 118.839L538.983 88.5759L539.105 88.5335L584.285 27.9265L667.553 0H665.731L583.799 27.4782L583.678 27.5206L538.5 88.1276L448.26 118.391L448.139 118.431L402.955 179.038L312.718 209.301L312.597 209.342L267.416 269.951L177.176 300.214L177.055 300.254L131.874 360.863L41.6365 391.126L41.5151 391.166L0.48999 446.201V447.42L42.1197 391.574L132.36 361.308ZM53.4142 490.061L98.5949 429.454L188.835 399.191L188.956 399.15L234.137 338.541L324.377 308.276L324.498 308.236L369.679 247.629L459.919 217.366L460.04 217.325L505.218 156.716L595.458 126.455L595.58 126.415L640.761 65.8059L730.998 35.5429L731.119 35.5024L757.587 0H756.676L730.515 35.0947L640.275 65.3576L640.153 65.3982L594.973 126.007L504.735 156.27L504.614 156.311L459.433 216.918L369.193 247.182L369.072 247.223L323.891 307.832L233.651 338.095L233.532 338.135L188.349 398.742L98.1091 429.005L97.9877 429.046L52.8096 489.655L0.48999 507.201V507.812L53.2954 490.101L53.4142 490.061ZM121.062 353.735L121.184 353.693L166.365 293.086L256.605 262.821L256.726 262.781L301.907 202.172L392.149 171.911L392.268 171.87L437.449 111.261L527.689 80.9982L527.81 80.9576L572.988 20.3506L633.666 0H631.847L572.505 19.9024L572.384 19.9429L527.203 80.5518L436.963 110.815L436.841 110.855L391.663 171.462L301.424 201.727L301.302 201.768L256.119 262.373L165.881 292.638L165.76 292.678L120.579 353.287L30.3394 383.55L30.2179 383.591L0.48999 423.471V424.692L30.8252 383.998L121.062 353.735ZM53.4142 399.15L143.654 368.885L143.776 368.845L188.956 308.236L279.196 277.973L279.318 277.932L324.498 217.325L414.736 187.062L414.857 187.022L460.04 126.415L550.28 96.1518L550.399 96.1094L595.58 35.5024L685.82 5.23765L685.941 5.19706L689.814 0H688.906L685.334 4.79118L595.094 35.0541L594.973 35.0947L549.795 95.7035L459.552 125.966L459.433 126.007L414.25 186.616L324.013 216.877L323.891 216.918L278.71 277.525L188.47 307.791L188.349 307.832L143.171 368.437L52.9311 398.702L52.8096 398.742L7.62892 459.353L0.48999 461.744V462.355L8.23616 459.757L53.4142 399.15ZM19.528 467.333L64.7114 406.726L154.949 376.461L155.07 376.421L200.251 315.814L290.491 285.551L290.612 285.51L335.793 224.901L426.033 194.638L426.154 194.598L471.332 133.991L561.572 103.726L561.694 103.685L606.874 43.0765L697.114 12.8153L697.236 12.7747L706.759 0H705.848L696.631 12.3671L606.391 42.63L606.27 42.6706L561.086 103.279L470.849 133.542L470.728 133.585L425.547 194.19L335.307 224.453L335.186 224.495L290.008 285.102L199.768 315.365L199.646 315.406L154.465 376.015L64.2256 406.278L64.1041 406.318L18.9234 466.927L0.48999 473.111V473.719L19.4092 467.372L19.528 467.333ZM30.8252 474.909L76.0085 414.3L166.246 384.037L166.365 383.996L211.545 323.389L301.788 293.126L301.907 293.086L347.087 232.477L437.327 202.216L437.449 202.172L482.629 141.566L572.867 111.302L572.988 111.261L618.171 50.6524L708.411 20.3912L708.53 20.3506L723.7 0H722.79L707.926 19.9429L617.683 50.2059L617.564 50.2482L572.384 110.855L482.144 141.118L482.022 141.159L436.841 201.768L346.604 232.031L346.48 232.071L301.302 292.678L211.062 322.941L210.941 322.982L165.76 383.591L75.5201 413.854L75.4013 413.896L30.2179 474.501L0.48999 484.474V485.082L30.7037 474.949L30.8252 474.909ZM42.1197 300.662L87.2977 240.053L177.54 209.788L177.659 209.749L222.842 149.141L313.082 118.879L313.204 118.839L358.385 58.23L448.622 27.9671L448.743 27.9265L469.561 0H468.65L448.139 27.5206L357.899 57.7818L357.777 57.8223L312.597 118.431L222.357 148.694L222.235 148.735L177.055 209.342L86.8146 239.606L86.6932 239.647L41.5151 300.254L0.48999 314.014V314.624L41.9982 300.702L42.1197 300.662ZM53.4142 308.236L98.5949 247.629L188.835 217.366L188.956 217.325L234.137 156.716L324.377 126.455L324.498 126.415L369.679 65.8059L459.919 35.5429L460.04 35.5024L486.503 0H485.594L459.433 35.0947L369.193 65.3576L369.072 65.3982L323.891 126.007L233.651 156.27L233.532 156.311L188.349 216.918L98.1091 247.182L97.9877 247.223L52.8096 307.832L0.48999 325.376V325.987L53.2954 308.276L53.4142 308.236ZM64.7114 315.814L109.889 255.203L200.129 224.942L200.251 224.901L245.429 164.294L335.671 134.031L335.793 133.991L380.976 73.3818L471.213 43.1188L471.332 43.0765L503.444 0H502.536L470.728 42.6706L380.49 72.9335L380.369 72.9759L335.186 133.585L244.946 163.846L244.824 163.886L199.646 224.495L109.404 254.758L109.285 254.799L64.1041 315.406L0.48999 336.739V337.35L64.5899 315.854L64.7114 315.814ZM23.7311 0H21.9121L7.75037 4.75059L7.62892 4.79118L0.48999 14.3682V15.5894L8.23616 5.19706L23.7311 0V0ZM98.4734 338.582L98.5949 338.541L143.776 277.932L234.016 247.671L234.137 247.629L279.318 187.022L369.558 156.757L369.679 156.716L414.857 96.1094L505.097 65.8465L505.218 65.8059L550.399 5.19706L565.897 0H564.075L549.913 4.75059L549.795 4.79118L504.611 65.3982L414.374 95.6629L414.252 95.7035L369.072 156.311L278.832 186.574L278.71 186.616L233.532 247.221L143.29 277.486L143.171 277.526L97.9877 338.135L7.75037 368.396L7.62892 368.437L0.48999 378.016V379.237L8.23616 368.845L98.4734 338.582ZM109.768 346.158L109.889 346.117L155.07 285.51L245.31 255.244L245.429 255.203L290.612 194.598L380.852 164.333L380.974 164.294L426.154 103.685L516.394 73.4223L516.516 73.3818L561.694 12.7747L599.78 0H597.961L561.208 12.3265L561.086 12.3671L515.908 72.9759L425.668 103.239L425.547 103.279L380.369 163.886L290.129 194.149L290.008 194.19L244.824 254.797L154.584 285.062L154.465 285.102L109.285 345.709L19.0449 375.972L18.9234 376.015L0.48999 400.744V401.963L19.528 376.421L109.768 346.158ZM30.8252 293.086L76.0059 232.477L166.246 202.216L166.365 202.172L211.545 141.566L301.788 111.302L301.907 111.261L347.087 50.6524L437.327 20.3912L437.449 20.3506L452.619 0H451.708L436.841 19.9429L346.604 50.2059L346.48 50.2482L301.302 110.855L211.062 141.118L210.941 141.159L165.76 201.768L75.5201 232.031L75.4013 232.071L30.2179 292.678L0.48999 302.647V303.259L30.7037 293.126L30.8252 293.086ZM53.4142 217.325L143.654 187.062L143.776 187.022L188.956 126.415L279.196 96.1518L279.318 96.1094L324.498 35.5024L414.736 5.23765L414.857 5.19706L418.733 0H417.822L414.252 4.79118L324.013 35.0541L323.891 35.0947L278.71 95.7035L188.47 125.966L188.349 126.007L143.171 186.616L52.9311 216.877L52.8096 216.918L7.62892 277.526L0.48999 279.921V280.532L8.23616 277.932L53.4142 217.325ZM685.334 459.353L647.577 510H648.486L685.941 459.757L760.85 434.635V434.024L685.455 459.311L685.334 459.353ZM628.98 421.429L628.859 421.47L583.678 482.079L500.421 510H502.24L584.164 482.525L584.285 482.485L629.463 421.878L719.703 391.615L719.825 391.572L760.85 336.542V335.321L719.217 391.166L628.98 421.429ZM640.275 429.005L640.153 429.046L594.973 489.655L534.305 510H536.127L595.458 490.101L595.58 490.061L640.761 429.454L730.998 399.191L731.119 399.15L760.85 359.269V358.048L730.515 398.742L640.275 429.005ZM674.039 269.951L628.859 330.559L538.619 360.821L538.5 360.863L493.317 421.47L403.077 451.733L402.955 451.774L359.551 510H360.462L403.563 452.181L493.802 421.918L493.924 421.878L539.105 361.267L629.345 331.006L629.463 330.965L674.647 270.356L760.85 241.445V240.836L674.161 269.908L674.039 269.951ZM696.631 285.102L651.45 345.709L561.208 375.972L561.086 376.015L515.908 436.624L425.668 466.885L425.547 466.927L393.438 510H394.348L426.154 467.333L516.394 437.07L516.516 437.029L561.694 376.421L651.934 346.158L652.055 346.117L697.236 285.51L760.85 264.175V263.566L696.75 285.062L696.631 285.102ZM707.926 292.678L662.745 353.287L572.505 383.55L572.384 383.591L527.203 444.199L436.963 474.461L436.841 474.501L410.379 510H411.29L437.449 474.909L527.689 444.646L527.81 444.605L572.988 383.996L663.228 353.735L663.35 353.693L708.53 293.086L760.85 275.538V274.929L708.047 292.638L707.926 292.678ZM685.334 277.526L640.153 338.135L549.913 368.396L549.795 368.437L504.614 429.046L414.374 459.311L414.252 459.353L376.496 510H377.404L414.857 459.757L505.097 429.494L505.218 429.454L550.399 368.845L640.639 338.582L640.761 338.541L685.941 277.932L760.85 252.812V252.203L685.455 277.486L685.334 277.526ZM651.569 436.581L651.45 436.624L606.27 497.231L568.191 510H570.01L606.753 497.679L606.874 497.636L652.055 437.029L742.295 406.766L742.416 406.726L760.85 381.997V380.778L741.809 406.318L651.569 436.581ZM730.515 489.655L715.347 510H716.258L731.119 490.061L760.85 480.092V479.481L730.636 489.614L730.515 489.655ZM719.217 300.254L674.039 360.863L583.799 391.126L583.678 391.166L538.5 451.774L448.26 482.036L448.139 482.079L427.324 510H428.235L448.743 482.485L538.983 452.222L539.105 452.181L584.285 391.572L674.525 361.308L674.647 361.267L719.825 300.662L760.85 286.904V286.292L719.339 300.214L719.217 300.254ZM741.809 497.231L732.289 510H733.2L742.416 497.636L760.85 491.456V490.844L741.931 497.19L741.809 497.231ZM753.104 504.806L749.233 510H750.141L753.711 505.214L760.85 502.819V502.209L753.225 504.766L753.104 504.806ZM662.866 444.159L662.745 444.199L617.564 504.806L602.077 510H603.896L618.05 505.255L618.171 505.214L663.35 444.605L753.589 414.341L753.711 414.3L760.85 404.725V403.505L753.104 413.896L662.866 444.159ZM719.217 482.079L698.405 510H699.313L719.825 482.485L760.85 468.727V468.116L719.339 482.036L719.217 482.079ZM674.039 451.774L630.636 510H631.544L674.647 452.181L760.85 423.272V422.661L674.161 451.733L674.039 451.774ZM707.926 474.501L681.464 510H682.372L708.53 474.909L760.85 457.364V456.754L708.047 474.461L707.926 474.501ZM696.631 466.927L664.519 510H665.43L697.236 467.333L760.85 445.999V445.387L696.75 466.885L696.631 466.927ZM719.217 118.431L674.039 179.038L583.799 209.301L583.678 209.342L538.5 269.949L448.26 300.214L448.139 300.254L402.955 360.863L312.718 391.126L312.597 391.166L267.416 451.774L177.176 482.036L177.055 482.079L156.242 510H157.151L177.662 482.485L267.902 452.222L268.023 452.181L313.204 391.572L403.441 361.308L403.563 361.267L448.746 300.662L538.983 270.397L539.105 270.356L584.285 209.749L674.525 179.486L674.647 179.446L719.825 118.839L760.85 105.081V104.471L719.339 118.391L719.217 118.431ZM741.809 42.6706L651.569 72.9335L651.45 72.9759L606.27 133.585L516.03 163.846L515.908 163.886L470.728 224.495L380.49 254.758L380.369 254.799L335.186 315.406L244.946 345.669L244.824 345.709L199.644 406.318L109.404 436.581L109.285 436.624L64.1041 497.231L26.0254 510H27.8471L64.5899 497.679L64.7114 497.636L109.889 437.029L200.129 406.766L200.251 406.726L245.429 346.117L335.671 315.854L335.793 315.814L380.974 255.203L471.213 224.942L471.332 224.901L516.516 164.294L606.753 134.031L606.874 133.991L652.055 73.3818L742.295 43.1188L742.416 43.0765L760.85 18.3494V17.13L741.809 42.6706ZM730.515 307.832L685.334 368.437L595.094 398.702L594.973 398.742L549.795 459.353L459.552 489.614L459.433 489.655L444.266 510H445.176L460.04 490.061L550.28 459.798L550.399 459.757L595.58 399.15L685.82 368.885L685.941 368.845L731.119 308.236L760.85 298.267V297.658L730.636 307.791L730.515 307.832ZM707.926 110.855L662.745 171.462L572.505 201.727L572.384 201.768L527.203 262.373L436.963 292.638L436.841 292.678L391.663 353.287L301.424 383.55L301.302 383.591L256.119 444.199L165.881 474.461L165.76 474.501L139.298 510H140.209L166.365 474.909L256.605 444.646L256.726 444.605L301.907 383.996L392.149 353.735L392.268 353.693L437.449 293.086L527.689 262.821L527.81 262.781L572.988 202.172L663.228 171.911L663.35 171.87L708.53 111.261L760.85 93.7165V93.1059L708.047 110.815L707.926 110.855ZM662.866 80.5112L662.745 80.5518L617.564 141.159L527.324 171.422L527.203 171.462L482.022 232.071L391.782 262.332L391.663 262.373L346.48 322.982L256.24 353.246L256.119 353.287L210.941 413.896L120.701 444.159L120.579 444.199L75.4013 504.806L59.9142 510H61.7333L75.8844 505.255L76.0059 505.214L121.184 444.605L211.426 414.341L211.545 414.3L256.726 353.693L346.966 323.43L347.087 323.389L392.268 262.781L482.508 232.518L482.629 232.477L527.81 171.87L618.05 141.607L618.171 141.566L663.35 80.9576L753.589 50.6929L753.711 50.6524L760.85 41.0771V39.8576L753.104 50.2482L662.866 80.5112ZM696.631 103.279L651.448 163.886L561.208 194.149L561.086 194.19L515.908 254.799L425.668 285.062L425.547 285.102L380.369 345.709L290.129 375.972L290.008 376.015L244.824 436.624L154.584 466.885L154.465 466.927L122.356 510H123.264L155.07 467.333L245.31 437.07L245.429 437.029L290.612 376.422L380.852 346.158L380.974 346.117L426.154 285.51L516.394 255.244L516.516 255.203L561.694 194.598L651.934 164.333L652.055 164.294L697.236 103.685L760.85 82.3518V81.7412L696.75 103.239L696.631 103.279ZM741.809 133.585L696.628 194.19L606.391 224.453L606.27 224.495L561.086 285.102L470.849 315.365L470.728 315.406L425.547 376.015L335.307 406.278L335.186 406.318L290.008 466.927L199.768 497.19L199.646 497.231L190.126 510H191.037L200.251 497.638L290.491 467.372L290.612 467.333L335.793 406.726L426.033 376.461L426.154 376.421L471.332 315.814L561.572 285.551L561.694 285.51L606.874 224.903L697.114 194.638L697.236 194.598L742.416 133.991L760.85 127.809V127.196L741.931 133.542L741.809 133.585ZM753.104 141.159L707.926 201.768L617.683 232.031L617.564 232.071L572.384 292.678L482.144 322.941L482.022 322.982L436.841 383.591L346.604 413.854L346.48 413.896L301.302 474.501L211.062 504.766L210.941 504.806L207.068 510H207.978L211.545 505.214L301.788 474.949L301.907 474.909L347.087 414.3L437.327 384.037L437.449 383.996L482.629 323.389L572.867 293.126L572.988 293.086L618.171 232.477L708.411 202.216L708.53 202.172L753.711 141.566L760.85 139.172V138.561L753.225 141.118L753.104 141.159ZM730.515 126.007L685.334 186.616L595.094 216.877L594.973 216.918L549.795 277.526L459.552 307.791L459.433 307.832L414.252 368.437L324.013 398.702L323.891 398.742L278.71 459.353L188.47 489.614L188.349 489.655L173.181 510H174.092L188.956 490.061L279.196 459.798L279.318 459.757L324.498 399.15L414.736 368.885L414.857 368.845L460.04 308.238L550.28 277.973L550.399 277.932L595.58 217.325L685.82 187.062L685.941 187.022L731.122 126.415L760.85 116.444V115.834L730.636 125.966L730.515 126.007ZM651.569 254.758L651.45 254.799L606.27 315.406L516.03 345.669L515.908 345.709L470.728 406.318L380.49 436.581L380.369 436.624L335.186 497.229L297.11 510H298.929L335.671 497.679L335.793 497.636L380.974 437.029L471.213 406.766L471.332 406.726L516.516 346.117L606.753 315.854L606.874 315.814L652.055 255.203L742.295 224.942L742.416 224.901L760.85 200.172V198.953L741.809 224.495L651.569 254.758ZM662.866 262.332L662.745 262.373L617.564 322.982L527.324 353.246L527.203 353.287L482.022 413.896L391.782 444.159L391.663 444.199L346.48 504.806L330.996 510H332.815L346.966 505.255L347.087 505.214L392.268 444.605L482.508 414.341L482.629 414.3L527.81 353.693L618.05 323.43L618.171 323.389L663.35 262.781L753.589 232.518L753.711 232.477L760.85 222.9V221.681L753.104 232.071L662.866 262.332ZM753.104 322.982L707.926 383.591L617.683 413.854L617.564 413.896L572.384 474.501L482.144 504.766L482.022 504.806L478.152 510H479.063L482.629 505.214L572.867 474.949L572.988 474.909L618.171 414.3L708.411 384.037L708.53 383.996L753.711 323.389L760.85 320.995V320.384L753.225 322.941L753.104 322.982ZM741.809 315.406L696.631 376.015L606.391 406.278L606.27 406.318L561.086 466.927L470.849 497.19L470.728 497.231L461.207 510H462.118L471.332 497.636L561.572 467.372L561.694 467.333L606.874 406.726L697.114 376.461L697.236 376.421L742.416 315.814L760.85 309.632V309.021L741.931 315.365L741.809 315.406ZM685.334 95.7035L640.153 156.311L549.913 186.574L549.795 186.616L504.614 247.223L414.374 277.486L414.252 277.526L369.072 338.135L278.832 368.396L278.71 368.437L233.532 429.046L143.29 459.311L143.171 459.353L105.412 510H106.323L143.776 459.757L234.016 429.494L234.137 429.454L279.318 368.845L369.558 338.582L369.679 338.541L414.857 277.932L505.097 247.671L505.218 247.629L550.402 187.022L640.639 156.757L640.761 156.716L685.941 96.1094L760.85 70.9871V70.3765L685.455 95.6629L685.334 95.7035ZM674.039 88.1276L628.859 148.735L538.619 178.998L538.5 179.038L493.317 239.645L403.077 269.908L402.955 269.951L357.777 330.559L267.537 360.821L267.416 360.863L222.235 421.47L131.995 451.733L131.874 451.774L88.47 510H89.3808L132.481 452.181L222.721 421.918L222.842 421.878L268.023 361.267L358.263 331.006L358.385 330.965L403.563 270.356L493.802 240.095L493.924 240.053L539.105 179.446L629.345 149.183L629.463 149.141L674.647 88.5335L760.85 59.6241V59.0135L674.161 88.0871L674.039 88.1276ZM628.98 239.606L628.859 239.647L583.678 300.254L493.438 330.517L493.317 330.559L448.139 391.166L357.899 421.429L357.777 421.47L312.597 482.079L229.34 510H231.159L313.082 482.525L313.204 482.485L358.385 421.878L448.622 391.615L448.743 391.572L493.924 330.965L584.164 300.702L584.285 300.662L629.463 240.053L719.703 209.788L719.825 209.749L760.85 154.717V153.498L719.217 209.342L628.98 239.606ZM640.275 247.182L640.153 247.223L594.973 307.832L504.735 338.095L504.614 338.135L459.433 398.742L369.193 429.005L369.072 429.046L323.891 489.655L263.223 510H265.045L324.377 490.101L324.498 490.061L369.679 429.454L459.919 399.191L460.04 399.15L505.221 338.541L595.458 308.276L595.58 308.236L640.761 247.629L730.998 217.366L731.119 217.325L760.85 177.445V176.225L730.515 216.918L640.275 247.182Z" fill="#2A468D"/>
</svg>